<svg xmlns="http://www.w3.org/2000/svg" xmlns:xlink="http://www.w3.org/1999/xlink" width="500" zoomAndPan="magnify" viewBox="0 0 375 374.999991" height="500" preserveAspectRatio="xMidYMid meet" version="1.0"><defs><clipPath id="5e447a8f6b"><path d="M 75 0 L 300 0 C 341.421875 0 375 33.578125 375 75 L 375 300 C 375 341.421875 341.421875 375 300 375 L 75 375 C 33.578125 375 0 341.421875 0 300 L 0 75 C 0 33.578125 33.578125 0 75 0 Z M 75 0 " clip-rule="nonzero"/></clipPath><clipPath id="cd846c5522"><path d="M 70.972656 87.675781 L 320.003906 87.675781 L 320.003906 294.660156 L 70.972656 294.660156 Z M 70.972656 87.675781 " clip-rule="nonzero"/></clipPath><clipPath id="e124f73cf0"><path d="M 314.160156 156.707031 C 317.6875 167.285156 320.003906 179.382812 320.003906 191.222656 C 320.003906 203.066406 318.019531 214.457031 314.488281 224.957031 C 314.378906 225.183594 314.378906 225.40625 314.269531 225.628906 C 300.15625 265.058594 262.886719 294.101562 219.332031 294.660156 L 70.914062 294.660156 L 70.914062 87.675781 L 219.222656 87.675781 C 263.105469 88.234375 300.375 116.828125 314.160156 156.707031 Z M 314.160156 156.707031 " clip-rule="nonzero"/></clipPath><linearGradient x1="128" gradientTransform="matrix(0, 0.80854, -0.80854, 0, 320.007167, 87.675048)" y1="0.00474155" x2="128" gradientUnits="userSpaceOnUse" y2="308.004745" id="f2816c384f"><stop stop-opacity="1" stop-color="rgb(6.298828%, 6.298828%, 6.298828%)" offset="0"/><stop stop-opacity="1" stop-color="rgb(6.481934%, 6.481934%, 6.481934%)" offset="0.03125"/><stop stop-opacity="1" stop-color="rgb(6.848145%, 6.848145%, 6.848145%)" offset="0.0625"/><stop stop-opacity="1" stop-color="rgb(7.21283%, 7.21283%, 7.21283%)" offset="0.09375"/><stop stop-opacity="1" stop-color="rgb(7.579041%, 7.579041%, 7.579041%)" offset="0.125"/><stop stop-opacity="1" stop-color="rgb(7.943726%, 7.943726%, 7.943726%)" offset="0.15625"/><stop stop-opacity="1" stop-color="rgb(8.309937%, 8.309937%, 8.309937%)" offset="0.1875"/><stop stop-opacity="1" stop-color="rgb(8.674622%, 8.674622%, 8.674622%)" offset="0.21875"/><stop stop-opacity="1" stop-color="rgb(9.040833%, 9.040833%, 9.040833%)" offset="0.25"/><stop stop-opacity="1" stop-color="rgb(9.405518%, 9.405518%, 9.405518%)" offset="0.28125"/><stop stop-opacity="1" stop-color="rgb(9.771729%, 9.771729%, 9.771729%)" offset="0.3125"/><stop stop-opacity="1" stop-color="rgb(10.137939%, 10.137939%, 10.137939%)" offset="0.34375"/><stop stop-opacity="1" stop-color="rgb(10.502625%, 10.502625%, 10.502625%)" offset="0.375"/><stop stop-opacity="1" stop-color="rgb(10.868835%, 10.868835%, 10.868835%)" offset="0.40625"/><stop stop-opacity="1" stop-color="rgb(11.233521%, 11.233521%, 11.233521%)" offset="0.4375"/><stop stop-opacity="1" stop-color="rgb(11.599731%, 11.599731%, 11.599731%)" offset="0.46875"/><stop stop-opacity="1" stop-color="rgb(11.964417%, 11.964417%, 11.964417%)" offset="0.5"/><stop stop-opacity="1" stop-color="rgb(12.330627%, 12.330627%, 12.330627%)" offset="0.53125"/><stop stop-opacity="1" stop-color="rgb(12.695312%, 12.695312%, 12.695312%)" offset="0.5625"/><stop stop-opacity="1" stop-color="rgb(13.061523%, 13.061523%, 13.061523%)" offset="0.59375"/><stop stop-opacity="1" stop-color="rgb(13.427734%, 13.427734%, 13.427734%)" offset="0.625"/><stop stop-opacity="1" stop-color="rgb(13.792419%, 13.792419%, 13.792419%)" offset="0.65625"/><stop stop-opacity="1" stop-color="rgb(14.15863%, 14.15863%, 14.15863%)" offset="0.6875"/><stop stop-opacity="1" stop-color="rgb(14.523315%, 14.523315%, 14.523315%)" offset="0.71875"/><stop stop-opacity="1" stop-color="rgb(14.889526%, 14.889526%, 14.889526%)" offset="0.75"/><stop stop-opacity="1" stop-color="rgb(15.254211%, 15.254211%, 15.254211%)" offset="0.78125"/><stop stop-opacity="1" stop-color="rgb(15.620422%, 15.620422%, 15.620422%)" offset="0.8125"/><stop stop-opacity="1" stop-color="rgb(15.986633%, 15.986633%, 15.986633%)" offset="0.84375"/><stop stop-opacity="1" stop-color="rgb(16.351318%, 16.351318%, 16.351318%)" offset="0.875"/><stop stop-opacity="1" stop-color="rgb(16.717529%, 16.717529%, 16.717529%)" offset="0.90625"/><stop stop-opacity="1" stop-color="rgb(17.082214%, 17.082214%, 17.082214%)" offset="0.9375"/><stop stop-opacity="1" stop-color="rgb(17.448425%, 17.448425%, 17.448425%)" offset="0.96875"/><stop stop-opacity="1" stop-color="rgb(17.81311%, 17.81311%, 17.81311%)" offset="1"/></linearGradient><clipPath id="e8429b01b0"><path d="M 0 0.00390625 L 249.078125 0.00390625 L 249.078125 207 L 0 207 Z M 0 0.00390625 " clip-rule="nonzero"/></clipPath><clipPath id="305325a7c4"><path d="M 243.234375 69.035156 C 246.765625 79.609375 249.078125 91.707031 249.078125 103.546875 C 249.078125 115.386719 247.09375 126.78125 243.566406 137.28125 C 243.457031 137.503906 243.457031 137.726562 243.347656 137.953125 C 229.234375 177.382812 191.964844 206.421875 148.410156 206.980469 L 64.5 206.980469 C 47.390625 206.980469 30.988281 200.1875 18.890625 188.089844 C 6.796875 175.996094 0 159.589844 0 142.484375 L 0 64.5 C 0 47.394531 6.796875 30.988281 18.890625 18.894531 C 30.988281 6.796875 47.390625 0.00390625 64.5 0.00390625 L 148.300781 0.00390625 C 192.183594 0.5625 229.453125 29.15625 243.234375 69.035156 Z M 243.234375 69.035156 " clip-rule="nonzero"/></clipPath></defs><g clip-path="url(#5e447a8f6b)"><rect x="-37.5" width="450" fill="#ffffff" y="-37.499999" height="449.999989" fill-opacity="1"/></g><g clip-path="url(#cd846c5522)"><g clip-path="url(#e124f73cf0)"><path fill="url(#f2816c384f)" d="M 320.003906 87.675781 L 70.972656 87.675781 L 70.972656 294.660156 L 320.003906 294.660156 Z M 320.003906 87.675781 " fill-rule="nonzero"/></g></g><g clip-path="url(#e8429b01b0)"><g clip-path="url(#305325a7c4)"><path stroke-linecap="butt" transform="matrix(0, 0.916658, -0.916658, 0, 249.080028, 0.00326249)" fill="none" stroke-linejoin="miter" d="M 75.30827 6.37714 C 86.843896 2.524829 100.04147 0.00207618 112.957792 0.00207618 C 125.874114 0.00207618 138.304635 2.16687 149.759294 6.01492 C 150.002194 6.134239 150.245095 6.134239 150.492256 6.253559 C 193.506889 21.650019 225.186181 62.308094 225.795562 109.822771 L 225.795562 201.362034 C 225.795562 220.026992 218.384977 237.920636 205.187403 251.118211 C 191.994089 264.311524 174.096184 271.72637 155.435487 271.72637 L 70.360777 271.72637 C 51.70008 271.72637 33.802175 264.311524 20.608862 251.118211 C 7.411287 237.920636 0.000702293 220.026992 0.000702293 201.362034 L 0.000702293 109.94209 C 0.610083 62.069455 31.803575 21.41138 75.30827 6.37714 Z M 75.30827 6.37714 " stroke="#ffffff" stroke-width="88.36451" stroke-opacity="1" stroke-miterlimit="4"/></g></g></svg>