<svg xmlns="http://www.w3.org/2000/svg" xmlns:xlink="http://www.w3.org/1999/xlink" width="500" zoomAndPan="magnify" viewBox="0 0 375 374.999991" height="500" preserveAspectRatio="xMidYMid meet" version="1.0"><defs><clipPath id="7ecf894134"><path d="M 30.679688 37.5 L 337.710938 37.5 L 337.710938 337.5 L 30.679688 337.5 Z M 30.679688 37.5 " clip-rule="nonzero"/></clipPath><clipPath id="29a9556216"><path d="M 105.679688 37.5 L 262.5 37.5 C 303.921875 37.5 337.5 71.078125 337.5 112.5 L 337.5 262.5 C 337.5 303.921875 303.921875 337.5 262.5 337.5 L 105.679688 337.5 C 64.257812 337.5 30.679688 303.921875 30.679688 262.5 L 30.679688 112.5 C 30.679688 71.078125 64.257812 37.5 105.679688 37.5 Z M 105.679688 37.5 " clip-rule="nonzero"/></clipPath><clipPath id="a1ea45a0f1"><path d="M 88.75 107.636719 L 292.503906 107.636719 L 292.503906 273.226562 L 88.75 273.226562 Z M 88.75 107.636719 " clip-rule="nonzero"/></clipPath><clipPath id="7bacd7bece"><path d="M 287.722656 162.863281 C 290.609375 171.328125 292.503906 181.003906 292.503906 190.476562 C 292.503906 199.949219 290.878906 209.066406 287.992188 217.464844 C 287.902344 217.644531 287.902344 217.824219 287.8125 218 C 276.265625 249.546875 245.769531 272.78125 210.136719 273.226562 L 88.703125 273.226562 L 88.703125 107.636719 L 210.046875 107.636719 C 245.953125 108.085938 276.445312 130.960938 287.722656 162.863281 Z M 287.722656 162.863281 " clip-rule="nonzero"/></clipPath><linearGradient x1="128" gradientTransform="matrix(0, 0.646832, -0.646832, 0, 292.508637, 107.638427)" y1="0.00726153" x2="128" gradientUnits="userSpaceOnUse" y2="315.007275" id="b13a840908"><stop stop-opacity="1" stop-color="rgb(6.298828%, 6.298828%, 6.298828%)" offset="0"/><stop stop-opacity="1" stop-color="rgb(6.481934%, 6.481934%, 6.481934%)" offset="0.03125"/><stop stop-opacity="1" stop-color="rgb(6.848145%, 6.848145%, 6.848145%)" offset="0.0625"/><stop stop-opacity="1" stop-color="rgb(7.21283%, 7.21283%, 7.21283%)" offset="0.09375"/><stop stop-opacity="1" stop-color="rgb(7.579041%, 7.579041%, 7.579041%)" offset="0.125"/><stop stop-opacity="1" stop-color="rgb(7.943726%, 7.943726%, 7.943726%)" offset="0.15625"/><stop stop-opacity="1" stop-color="rgb(8.309937%, 8.309937%, 8.309937%)" offset="0.1875"/><stop stop-opacity="1" stop-color="rgb(8.674622%, 8.674622%, 8.674622%)" offset="0.21875"/><stop stop-opacity="1" stop-color="rgb(9.040833%, 9.040833%, 9.040833%)" offset="0.25"/><stop stop-opacity="1" stop-color="rgb(9.405518%, 9.405518%, 9.405518%)" offset="0.28125"/><stop stop-opacity="1" stop-color="rgb(9.771729%, 9.771729%, 9.771729%)" offset="0.3125"/><stop stop-opacity="1" stop-color="rgb(10.137939%, 10.137939%, 10.137939%)" offset="0.34375"/><stop stop-opacity="1" stop-color="rgb(10.502625%, 10.502625%, 10.502625%)" offset="0.375"/><stop stop-opacity="1" stop-color="rgb(10.868835%, 10.868835%, 10.868835%)" offset="0.40625"/><stop stop-opacity="1" stop-color="rgb(11.233521%, 11.233521%, 11.233521%)" offset="0.4375"/><stop stop-opacity="1" stop-color="rgb(11.599731%, 11.599731%, 11.599731%)" offset="0.46875"/><stop stop-opacity="1" stop-color="rgb(11.964417%, 11.964417%, 11.964417%)" offset="0.5"/><stop stop-opacity="1" stop-color="rgb(12.330627%, 12.330627%, 12.330627%)" offset="0.53125"/><stop stop-opacity="1" stop-color="rgb(12.695312%, 12.695312%, 12.695312%)" offset="0.5625"/><stop stop-opacity="1" stop-color="rgb(13.061523%, 13.061523%, 13.061523%)" offset="0.59375"/><stop stop-opacity="1" stop-color="rgb(13.427734%, 13.427734%, 13.427734%)" offset="0.625"/><stop stop-opacity="1" stop-color="rgb(13.792419%, 13.792419%, 13.792419%)" offset="0.65625"/><stop stop-opacity="1" stop-color="rgb(14.15863%, 14.15863%, 14.15863%)" offset="0.6875"/><stop stop-opacity="1" stop-color="rgb(14.523315%, 14.523315%, 14.523315%)" offset="0.71875"/><stop stop-opacity="1" stop-color="rgb(14.889526%, 14.889526%, 14.889526%)" offset="0.75"/><stop stop-opacity="1" stop-color="rgb(15.254211%, 15.254211%, 15.254211%)" offset="0.78125"/><stop stop-opacity="1" stop-color="rgb(15.620422%, 15.620422%, 15.620422%)" offset="0.8125"/><stop stop-opacity="1" stop-color="rgb(15.985107%, 15.985107%, 15.985107%)" offset="0.84375"/><stop stop-opacity="1" stop-color="rgb(16.351318%, 16.351318%, 16.351318%)" offset="0.875"/><stop stop-opacity="1" stop-color="rgb(16.717529%, 16.717529%, 16.717529%)" offset="0.90625"/><stop stop-opacity="1" stop-color="rgb(17.082214%, 17.082214%, 17.082214%)" offset="0.9375"/><stop stop-opacity="1" stop-color="rgb(17.448425%, 17.448425%, 17.448425%)" offset="0.96875"/><stop stop-opacity="1" stop-color="rgb(17.81311%, 17.81311%, 17.81311%)" offset="1"/></linearGradient><clipPath id="018facad2d"><path d="M 30.679688 37.5 L 234.476562 37.5 L 234.476562 203.085938 L 30.679688 203.085938 Z M 30.679688 37.5 " clip-rule="nonzero"/></clipPath><clipPath id="df1eee7e12"><path d="M 229.695312 92.726562 C 232.582031 101.1875 234.476562 110.867188 234.476562 120.339844 C 234.476562 129.8125 232.851562 138.925781 229.964844 147.324219 C 229.875 147.503906 229.875 147.683594 229.785156 147.863281 C 218.238281 179.40625 187.746094 202.640625 152.109375 203.085938 L 91.394531 203.085938 C 75.292969 203.085938 59.847656 196.691406 48.460938 185.304688 C 37.074219 173.917969 30.679688 158.472656 30.679688 142.371094 L 30.679688 98.171875 C 30.679688 64.664062 57.84375 37.5 91.347656 37.5 L 152.019531 37.5 C 187.925781 37.949219 218.417969 60.824219 229.695312 92.726562 Z M 229.695312 92.726562 " clip-rule="nonzero"/></clipPath></defs><g clip-path="url(#7ecf894134)"><g clip-path="url(#29a9556216)"><path fill="#ffffff" d="M 30.679688 37.5 L 337.710938 37.5 L 337.710938 337.5 L 30.679688 337.5 Z M 30.679688 37.5 " fill-opacity="1" fill-rule="nonzero"/></g></g><g clip-path="url(#a1ea45a0f1)"><g clip-path="url(#7bacd7bece)"><path fill="url(#b13a840908)" d="M 292.503906 107.636719 L 88.75 107.636719 L 88.75 273.226562 L 292.503906 273.226562 Z M 292.503906 107.636719 " fill-rule="nonzero"/></g></g><g clip-path="url(#018facad2d)"><g clip-path="url(#df1eee7e12)"><path stroke-linecap="butt" transform="matrix(0, 0.75, -0.75, 0, 234.477205, 37.500997)" fill="none" stroke-linejoin="miter" d="M 73.634087 6.375857 C 84.915337 2.526898 97.821587 0.000856804 110.451795 0.000856804 C 123.082004 0.000856804 135.233045 2.167523 146.430962 6.016482 C 146.670545 6.136273 146.910129 6.136273 147.149712 6.256065 C 189.207004 21.651899 220.186171 62.308149 220.779921 109.823774 L 220.779921 190.776899 C 220.779921 212.245649 212.253879 232.839399 197.071587 248.021691 C 181.889295 263.203982 161.295545 271.730024 139.826795 271.730024 L 80.894504 271.730024 C 36.21742 271.730024 -0.00132984 235.511274 -0.00132984 190.839399 L -0.00132984 109.943565 C 0.597628 62.068565 31.097629 21.412315 73.634087 6.375857 Z M 73.634087 6.375857 " stroke="#ffffff" stroke-width="108" stroke-opacity="1" stroke-miterlimit="4"/></g></g></svg>