<svg width="500" height="500" viewBox="0 0 500 500" fill="none" xmlns="http://www.w3.org/2000/svg">
<path d="M500 217.065H471.749L465.747 245.367H447.681L454.017 217.065H425.766V199.301L457.073 199.226L463.334 171H480.552L474.291 199.226L500 199.301V217.065Z" fill="black"/>
<path d="M328.101 235.356C328.101 228.33 329.804 222.108 333.211 216.689C336.717 211.169 341.726 206.904 348.238 203.893C354.749 200.782 362.413 199.226 371.229 199.226C382.449 199.226 388.814 199.226 396.977 199.226C407.598 199.226 403.238 199.226 411.065 199.226V219.248C406.369 219.248 398.006 219.248 393.846 219.248C389.687 219.248 378.041 219.248 371.83 219.248C365.118 219.248 360.059 220.552 356.653 223.162C353.347 225.671 351.694 229.384 351.694 234.302C351.694 239.019 353.447 242.632 356.953 245.141C360.46 247.65 366.621 249.707 375.437 251.313C389.562 253.822 399.831 258.187 406.242 264.41C412.654 270.632 415.859 279.263 415.859 290.303C415.859 297.528 413.906 304.052 409.999 309.873C406.192 315.593 400.782 320.059 393.77 323.271C386.857 326.482 378.993 328.088 370.177 328.088C357.955 328.088 347.787 325.579 339.672 320.561C331.558 315.543 323.407 302.96 321.842 290.415L342.377 290.303C344.18 296.123 347.436 300.539 352.145 303.55C356.853 306.561 362.814 308.066 370.027 308.066C377.24 308.066 382.7 306.611 386.406 303.701C390.213 300.69 392.117 296.424 392.117 290.905C392.117 285.686 390.113 281.571 386.106 278.56C382.199 275.55 375.387 273.141 365.669 271.335C352.846 269.026 343.379 264.911 337.268 258.99C331.157 253.069 328.101 245.191 328.101 235.356Z" fill="black"/>
<path d="M306.3 201.183V325.98H282.708C282.708 325.98 282.708 298.018 282.708 290.177C282.708 282.336 275.209 270.431 252.016 270.431C228.824 270.431 238.811 270.431 228.16 270.431V325.98H204.567V201.183H228.16V250.711C228.16 250.711 228.175 250.711 252.016 250.711C275.857 250.711 282.708 261.951 282.708 261.951V201.183H306.3Z" fill="black"/>
<path d="M148.946 276.603V325.98H125.354V276.754L83.1277 201.183H109.726L137.748 255.679L165.626 201.183H191.172L148.946 276.603Z" fill="black"/>
<path d="M79.2176 306.26L74.985 325.98H0L13.4743 201.183H35.3887L23.5925 306.26H79.2176Z" fill="black"/>
</svg>
